<svg id="Calque_1" data-name="Calque 1" xmlns="http://www.w3.org/2000/svg" viewBox="0 0 293.27 247.62"><defs><style>.cls-1{fill:#edc085;}.cls-2,.cls-4{fill:none;stroke:#1d1d1b;}.cls-2{stroke-miterlimit:10;}.cls-3{fill:#f7dbb2;}.cls-4{stroke-linecap:round;stroke-linejoin:round;stroke-dasharray:5.99 3.99;}.cls-13,.cls-5,.cls-6{fill:#1d1d1b;}.cls-6{font-size:36.42px;}.cls-13,.cls-6{font-family:SignPainter-HouseScript, SignPainter;}.cls-7{letter-spacing:-0.06em;}.cls-8,.cls-9{font-size:30.17px;}.cls-8{letter-spacing:-0.11em;}.cls-9{letter-spacing:0em;}.cls-10{letter-spacing:-0.01em;}.cls-11{letter-spacing:0em;}.cls-12{letter-spacing:0em;}.cls-13{font-size:23.58px;}.cls-14{letter-spacing:0em;}.cls-15{letter-spacing:0em;}.cls-16{letter-spacing:-0.01em;}.cls-17{letter-spacing:0em;}.cls-18{letter-spacing:-0.01em;}</style></defs><path class="cls-1" d="M169.58,55.57h0a56.54,56.54,0,0,0,19.89,3.58h0c13.85,0,27.06,5,36.33,13.7h0A49.39,49.39,0,0,0,242.25,83h0c12.65,4.77,22.33,13.87,26.61,25h0A40.48,40.48,0,0,0,279,122.91h0c9.27,8.72,13.74,20.36,12.29,32h0a35.51,35.51,0,0,0,2.13,17.13h0a35.86,35.86,0,0,1-4.16,33.49h0A37.34,37.34,0,0,0,283,221.94h0c-1.45,11.67-8.68,22.27-19.89,29.17h0a44.85,44.85,0,0,0-13.6,12.79h0c-6.93,10.16-18.62,17.36-32.17,19.8h0a53.73,53.73,0,0,0-18.57,7h0a56,56,0,0,1-38.9,7h0a57.85,57.85,0,0,0-20.33,0h0a56,56,0,0,1-38.9-7h0a53.65,53.65,0,0,0-18.57-7h0c-13.56-2.44-25.25-9.64-32.18-19.8h0a44.73,44.73,0,0,0-13.6-12.79h0c-11.21-6.9-18.44-17.5-19.89-29.17h0a37.1,37.1,0,0,0-6.28-16.38h0A35.86,35.86,0,0,1,6,172.07H6a35.39,35.39,0,0,0,2.13-17.13h0c-1.45-11.67,3-23.31,12.29-32h0A40.36,40.36,0,0,0,30.53,108h0c4.29-11.16,14-20.26,26.62-25h0A49.45,49.45,0,0,0,73.59,72.85h0c9.27-8.72,22.48-13.7,36.34-13.7h0a56.49,56.49,0,0,0,19.88-3.58h0A57.05,57.05,0,0,1,169.58,55.57Z" transform="translate(-3.06 -51.49)"/><path class="cls-2" d="M169.58,55.57h0a56.54,56.54,0,0,0,19.89,3.58h0c13.85,0,27.06,5,36.33,13.7h0A49.39,49.39,0,0,0,242.25,83h0c12.65,4.77,22.33,13.87,26.61,25h0A40.48,40.48,0,0,0,279,122.91h0c9.27,8.72,13.74,20.36,12.29,32h0a35.51,35.51,0,0,0,2.13,17.13h0a35.86,35.86,0,0,1-4.16,33.49h0A37.34,37.34,0,0,0,283,221.94h0c-1.45,11.67-8.68,22.27-19.89,29.17h0a44.85,44.85,0,0,0-13.6,12.79h0c-6.93,10.16-18.62,17.36-32.17,19.8h0a53.73,53.73,0,0,0-18.57,7h0a56,56,0,0,1-38.9,7h0a57.85,57.85,0,0,0-20.33,0h0a56,56,0,0,1-38.9-7h0a53.65,53.65,0,0,0-18.57-7h0c-13.56-2.44-25.25-9.64-32.18-19.8h0a44.73,44.73,0,0,0-13.6-12.79h0c-11.21-6.9-18.44-17.5-19.89-29.17h0a37.1,37.1,0,0,0-6.28-16.38h0A35.86,35.86,0,0,1,6,172.07H6a35.39,35.39,0,0,0,2.13-17.13h0c-1.45-11.67,3-23.31,12.29-32h0A40.36,40.36,0,0,0,30.53,108h0c4.29-11.16,14-20.26,26.62-25h0A49.45,49.45,0,0,0,73.59,72.85h0c9.27-8.72,22.48-13.7,36.34-13.7h0a56.49,56.49,0,0,0,19.88-3.58h0A57.05,57.05,0,0,1,169.58,55.57Z" transform="translate(-3.06 -51.49)"/><path class="cls-3" d="M168.56,61.75h0a53.74,53.74,0,0,0,18.86,3.39h0c13.14,0,25.66,4.72,34.45,13h0a47,47,0,0,0,15.6,9.6h0c12,4.53,21.18,13.16,25.24,23.74h0a38.5,38.5,0,0,0,9.64,14.14h0c8.8,8.27,13,19.31,11.66,30.38h0a33.68,33.68,0,0,0,2,16.24h0A34,34,0,0,1,282.08,204h0a35.29,35.29,0,0,0-6,15.53h0c-1.37,11.07-8.22,21.13-18.86,27.67h0a42.52,42.52,0,0,0-12.9,12.13h0c-6.57,9.64-17.66,16.46-30.51,18.78h0a50.86,50.86,0,0,0-17.62,6.64h0a53.09,53.09,0,0,1-36.89,6.64h0a54.77,54.77,0,0,0-19.28,0h0a53.11,53.11,0,0,1-36.9-6.64h0a50.89,50.89,0,0,0-17.61-6.64h0C72.69,275.79,61.6,269,55,259.33h0a42.4,42.4,0,0,0-12.9-12.13h0c-10.63-6.54-17.49-16.6-18.86-27.67h0a35.29,35.29,0,0,0-6-15.53h0a34,34,0,0,1-3.94-31.77h0a33.56,33.56,0,0,0,2-16.24h0C14,144.92,18.25,133.88,27,125.61h0a38.38,38.38,0,0,0,9.64-14.14h0c4.06-10.58,13.23-19.21,25.24-23.74h0a46.87,46.87,0,0,0,15.6-9.6h0c8.79-8.27,21.32-13,34.46-13h0a53.83,53.83,0,0,0,18.86-3.39h0A54,54,0,0,1,168.56,61.75Z" transform="translate(-3.06 -51.49)"/><path class="cls-4" d="M168.56,61.75h0a53.74,53.74,0,0,0,18.86,3.39h0c13.14,0,25.66,4.72,34.45,13h0a47,47,0,0,0,15.6,9.6h0c12,4.53,21.18,13.16,25.24,23.74h0a38.5,38.5,0,0,0,9.64,14.14h0c8.8,8.27,13,19.31,11.66,30.38h0a33.68,33.68,0,0,0,2,16.24h0A34,34,0,0,1,282.08,204h0a35.29,35.29,0,0,0-6,15.53h0c-1.37,11.07-8.22,21.13-18.86,27.67h0a42.52,42.52,0,0,0-12.9,12.13h0c-6.57,9.64-17.66,16.46-30.51,18.78h0a50.86,50.86,0,0,0-17.62,6.64h0a53.09,53.09,0,0,1-36.89,6.64h0a54.77,54.77,0,0,0-19.28,0h0a53.11,53.11,0,0,1-36.9-6.64h0a50.89,50.89,0,0,0-17.61-6.64h0C72.69,275.79,61.6,269,55,259.33h0a42.4,42.4,0,0,0-12.9-12.13h0c-10.63-6.54-17.49-16.6-18.86-27.67h0a35.29,35.29,0,0,0-6-15.53h0a34,34,0,0,1-3.94-31.77h0a33.56,33.56,0,0,0,2-16.24h0C14,144.92,18.25,133.88,27,125.61h0a38.38,38.38,0,0,0,9.64-14.14h0c4.06-10.58,13.23-19.21,25.24-23.74h0a46.87,46.87,0,0,0,15.6-9.6h0c8.79-8.27,21.32-13,34.46-13h0a53.83,53.83,0,0,0,18.86-3.39h0A54,54,0,0,1,168.56,61.75Z" transform="translate(-3.06 -51.49)"/><path class="cls-5" d="M123.54,72.14a5.6,5.6,0,0,1,1.4-.13,8.29,8.29,0,0,1,3.95,1,6.12,6.12,0,0,1,2.67,2.52,8.18,8.18,0,0,1,.67,3.46,12,12,0,0,1-.7,4.17c-.46,1.27-1,1.93-1.73,2a.46.46,0,0,0-.18.06h-.12c-.57,0-.85-.26-.85-.79a3.48,3.48,0,0,1,.24-1.15,11.75,11.75,0,0,0,.42-3.77,11.72,11.72,0,0,0-.3-3c-.41-1.5-1.11-2.25-2.13-2.25s-2.85,1.1-5,3.28a31.46,31.46,0,0,0-8.57,16.78,33.44,33.44,0,0,0-.54,6.31,18.66,18.66,0,0,0,.48,4.74q2.07,7.11,5.9,7.11a4.25,4.25,0,0,0,2-.48,13.76,13.76,0,0,0,5.17-5,60.85,60.85,0,0,0,5.65-11.66,31.33,31.33,0,0,1,1.24-2.89,1.08,1.08,0,0,1,.82-.52h.25c.4,0,.6.19.6.55a7.53,7.53,0,0,1-.6,2.19q-4.38,11.67-8,15.43c-2.34,2.39-4.82,3.59-7.41,3.59h-.73q-5.71-.44-8.44-8.33a20.77,20.77,0,0,1-1-6.74c0-.16,0-.44,0-.82s0-.68,0-.88a32.92,32.92,0,0,1,3.41-13.67,26.3,26.3,0,0,1,5.37-7.36A13.36,13.36,0,0,1,123.54,72.14Z" transform="translate(-3.06 -51.49)"/><path class="cls-5" d="M147.48,63.75a2.43,2.43,0,0,1,2.19,1.46,6.87,6.87,0,0,1,.79,3.34q0,6.51-6.75,16.65a38.69,38.69,0,0,1-3.49,4.5,17.51,17.51,0,0,1-3.13,2.91,1.91,1.91,0,0,0-.76,1.28c-.1.57-.19,2.39-.27,5.47l-.12,6.2,1-3a31.46,31.46,0,0,1,3.77-7.78c1.5-2.19,2.77-3.28,3.83-3.28a3.32,3.32,0,0,1,1.94,1.21,4.29,4.29,0,0,1,1,1.37,6.68,6.68,0,0,1,.19,1.92,30.21,30.21,0,0,1-1.4,7.11,38.07,38.07,0,0,0-1.7,7.83,4.31,4.31,0,0,0,.27,1.52c.18.49.43.73.76.73s1.05-.5,1.94-1.52c1.14-1.25,2.53-3.78,4.2-7.59A47.87,47.87,0,0,0,155,94.56c.16-.81.44-1.22.85-1.22h.18c.44,0,.67.41.67,1.1v.48q-.06,3-3.86,11.34t-6.53,8.35a3.15,3.15,0,0,1-2.07-1.18,5.92,5.92,0,0,1-1.52-2.53,13.56,13.56,0,0,1-.3-3.16,42,42,0,0,1,1.15-9.47,29,29,0,0,0,.73-3.83c-.16,0-.69.44-1.58,1.33q-3,3-4.8,9.91c-.69,2.55-1.25,3.83-1.7,3.83a1.36,1.36,0,0,1-.55-.19q-1.4-.72-2.34-5.53a54.6,54.6,0,0,1-.94-10.39,41.41,41.41,0,0,1,.55-7.11,38.78,38.78,0,0,1,6.2-15.43,29,29,0,0,1,3.34-4,12.91,12.91,0,0,1,3.22-2.55A6.48,6.48,0,0,1,147.48,63.75Zm1.22,5.77c0-.56.06-1.27.06-2.12v-.49c-.29,0-.91.52-1.89,1.55a31.55,31.55,0,0,0-2.67,3.25,47.13,47.13,0,0,0-7,16.47l-.48,2.31.91-.85a36.34,36.34,0,0,0,3.34-4,60.53,60.53,0,0,0,3.46-5C147,76.29,148.45,72.56,148.7,69.52Z" transform="translate(-3.06 -51.49)"/><path class="cls-5" d="M157.81,89c1.18-1.22,2.07-1.82,2.67-1.82a3.74,3.74,0,0,1,1.16.3A3.3,3.3,0,0,1,164,90.73a8.15,8.15,0,0,1-1.95,4.68,4.39,4.39,0,0,1-3.7,2,1.27,1.27,0,0,0-.94.25,3.31,3.31,0,0,0-.4,1.39,17.32,17.32,0,0,0-.12,1.83,9,9,0,0,0,.79,4.37,1.25,1.25,0,0,0,1.09.67,4.79,4.79,0,0,0,2.43-1.15q2.68-2,6.14-8.69c1-2,1.7-2.92,2.07-2.92s.54.16.54.49a13.76,13.76,0,0,1-1.61,3.86,32,32,0,0,1-2.82,4.7,15.19,15.19,0,0,1-3.5,3.38,6.18,6.18,0,0,1-3.37,1.24,2.47,2.47,0,0,1-1-.18q-3.58-1.4-3.59-7.35c0-.16,0-.39,0-.67s0-.49,0-.61A13.8,13.8,0,0,1,157.81,89Zm.55,7.35c.65,0,1.39-.66,2.22-2a6.75,6.75,0,0,0,1.24-3.44v-.12l-.12-1-1,1.34A25.21,25.21,0,0,0,158.94,94a7.2,7.2,0,0,0-.95,2.13C158,96.26,158.12,96.32,158.36,96.32Z" transform="translate(-3.06 -51.49)"/><path class="cls-5" d="M173.31,88.66a6.56,6.56,0,0,1,2.12-1.15,2.75,2.75,0,0,1,2.43,1.82,3.84,3.84,0,0,1,.43,1.76,12.69,12.69,0,0,1-1.58,5.11,8.52,8.52,0,0,0-1,2.43q0,.12.06.12h.12a12.17,12.17,0,0,1,2.19-.55,6.12,6.12,0,0,1,1.33-.18,5.13,5.13,0,0,1,1.95.49l1.64.73,2.85-2.55a30.39,30.39,0,0,0,3.16-3c.49-.49.85-.51,1.1-.06a1.49,1.49,0,0,1,.18.66q0,.85-3.34,3.89l-2.86,2.62.55,1.45a9.91,9.91,0,0,1,.48,3.1,27.13,27.13,0,0,1-2.55,10.21q-4,9.66-13.24,18.9-6,6-9.61,6a4.37,4.37,0,0,1-1.76-.31,3.55,3.55,0,0,1-2.24-3.64,6.9,6.9,0,0,1,.06-1,28,28,0,0,1,3.4-9.23,60.46,60.46,0,0,1,7.17-10.39q2.31-2.74,8.87-9.18,6-5.9,6-6.44c0-.12-.25-.18-.73-.18a12.62,12.62,0,0,0-4.32,1.12,12.09,12.09,0,0,0-3.89,2.22c-.81.81-1.35,1.21-1.64,1.21s-.61-.22-1-.66-.49-.55-.49-.67a2.38,2.38,0,0,1,.55-1,54,54,0,0,0,2.77-5.16q2.14-4.32,2.46-5.23.18-.54.09-.66c-.06-.09-.21-.07-.46.06A12.1,12.1,0,0,0,171.85,93c-1.34,1-2,1.59-2,1.79s-.16.18-.48-.06a1.26,1.26,0,0,1-.55-1c0-.45.51-1.23,1.52-2.34A16,16,0,0,1,173.31,88.66Zm8.26,18.23a15,15,0,0,0,.67-3.28q0-.54-.24-.54t-4.56,3.82q-13.12,12.17-17.75,21.76a19.43,19.43,0,0,0-2.24,8.32,3,3,0,0,0,.24,1.4.59.59,0,0,0,.55.3c1,0,2.75-1.29,5.34-3.89a83.17,83.17,0,0,0,11-13.85A57.31,57.31,0,0,0,181.57,106.89Z" transform="translate(-3.06 -51.49)"/><path class="cls-5" d="M73.25,131.53a23.84,23.84,0,0,1,7.5-1,18,18,0,0,1,7.51,1.27q8.77,4,8.78,11.46a1.68,1.68,0,0,1-.07.5,2.29,2.29,0,0,0-.06.51A24.3,24.3,0,0,1,94.05,153q-2.49,4.77-4.14,4.77c-.93,0-1.4-.34-1.4-1A15.21,15.21,0,0,1,89.66,153a31.12,31.12,0,0,0,2.16-10.3,17.33,17.33,0,0,0-.38-3.57c-.51-1.86-1.27-3-2.29-3.56a8.18,8.18,0,0,0-3.69-.76q-5,0-11.77,3.43a39.57,39.57,0,0,0-11.39,8.4q-5.46,5.85-5.47,11.2,0,6.23,7,9.28a36,36,0,0,0,13.87,2.42H79a9.6,9.6,0,0,0,1-.06c.38,0,.65-.07.82-.07a8,8,0,0,1,2.67.26,2,2,0,0,1,.64.7,1,1,0,0,1,.13.83.51.51,0,0,1-.51.38q-.51,0-.51,1c0,.68-.68,1.18-2,1.52q-5.09,1.28-12.08,7a46.82,46.82,0,0,0-10.44,11.32,22.38,22.38,0,0,0-3.81,11.84q0,4.71,2.67,7a3.88,3.88,0,0,0,2.67,1,10.37,10.37,0,0,0,1.78-.13,20.74,20.74,0,0,0,8.53-3,53.89,53.89,0,0,0,9.67-8.2,85.89,85.89,0,0,0,6.74-7.89,121.61,121.61,0,0,0,6.62-10.69c.67-1.27,1.44-2.63,2.29-4.07s1.48-2.56,1.9-3.37a10.62,10.62,0,0,1,.77-1.34,1,1,0,0,1,1.33-.38,1.41,1.41,0,0,1,.83,1.4c0,.94-1.53,4.26-4.58,10a103,103,0,0,1-7.25,12.15q-7.26,9.54-13.62,14a22.93,22.93,0,0,1-13.23,4.08,14.78,14.78,0,0,1-9-2.55q-4.57-3.44-4.58-10.69a22.54,22.54,0,0,1,.63-4.83q1.41-6,6.68-12.6a47.17,47.17,0,0,1,11.77-10.68,7.89,7.89,0,0,0,1.15-.83,6.71,6.71,0,0,0,.76-.76c.17-.21.21-.32.13-.32a32.21,32.21,0,0,0-3.56-1.15,25.17,25.17,0,0,1-11.07-6.1q-4.34-4.2-4.33-8.78v-1.53q.51-6.36,7.38-13.23A36.49,36.49,0,0,1,73.25,131.53Z" transform="translate(-3.06 -51.49)"/><path class="cls-5" d="M102.13,153a6.66,6.66,0,0,1,3.56-1,5.62,5.62,0,0,1,3.56,1.21,4.06,4.06,0,0,1,1.53,3.37c0,2.13-.76,3.19-2.29,3.19a4.27,4.27,0,0,1-1-.26,4,4,0,0,0-1.14-.13q-3.57,0-3.57,9.55,0,8.26,1.66,12.72a40,40,0,0,0,4.7,9.54l6.11-8.27q6-8.27,6.74-8.27c.34,0,.77.34,1.28,1a.37.37,0,0,1,.12.25q0,1.53-6.23,9.42l-6.87,8.9,1.4,4.46a29.31,29.31,0,0,1,1.4,9.29q0,9.41-5.47,15.52-4.71,5.08-9.8,5.09A5.59,5.59,0,0,1,93,226.32a4.5,4.5,0,0,1-.64-2.8q0-3.95,2.8-10.5a68.63,68.63,0,0,1,7.12-12.66l3.31-4.71-4.71-9.54Q96,176.2,96,167.41a20.8,20.8,0,0,1,2-9.42A11.75,11.75,0,0,1,102.13,153Zm4.7,53.82c.09-1,.13-2.25.13-3.69,0-2-.21-3-.63-3s-1.45,1-2.8,3a53.59,53.59,0,0,0-6,11.13q-2.36,5.93-2.35,9.48a5.33,5.33,0,0,0,.25,2c.17.51.41.76.7.76a6.29,6.29,0,0,0,2-.76Q106.07,221.61,106.83,206.85Z" transform="translate(-3.06 -51.49)"/><path class="cls-5" d="M129.35,134.58c.93-1.86,1.91-2.8,2.93-2.8a4.15,4.15,0,0,1,2.93,1.79,3.94,3.94,0,0,1,1.27,2.29c0,.17-.3,1.52-.89,4.07a21.4,21.4,0,0,0-.77,4.07c0,.59.17,1,.51,1.14q1,.51,7.25,1.4a50.78,50.78,0,0,0,5.86.39q5.72,0,7.76-2.42l1.4-1.66,1.14,1.66a4.36,4.36,0,0,1,1,2.42c0,.76-.64,1.52-1.91,2.29q-2.55,1.65-7.63,1.65a50.49,50.49,0,0,1-9-.89,55.39,55.39,0,0,0-7.5-1l-.38.13q-.39.38-1.78,6.23a157.11,157.11,0,0,0-5.22,39.32q0,14.12,3.31,18.06l1.65,1.91,2.29-1.91q2.41-2,5.85-9.48a128.45,128.45,0,0,0,6.24-16.73l1.59-5.28c.55-1.82,1-3.26,1.33-4.32a17.44,17.44,0,0,0,.51-1.72q.26-.88,1.53-.51a1.73,1.73,0,0,1,.89,1.78q0,2.81-3.56,13.49Q139.4,216,132.15,216q-12.09,0-12.09-31.55a136.53,136.53,0,0,1,3.31-31.05,31,31,0,0,0,1.15-6.36c0-.25-2.34-.72-7-1.4a39.26,39.26,0,0,0-5.47-.51,12.06,12.06,0,0,0-4.71,1,15.7,15.7,0,0,1-3.18,1,1.22,1.22,0,0,1-1-.51,1.79,1.79,0,0,1-.25-1,2.94,2.94,0,0,1,1-2,6.33,6.33,0,0,1,2.8-1.53,17.73,17.73,0,0,1,5.08-.51,84.46,84.46,0,0,1,11.33,1c1.19.17,1.82.25,1.91.25a1.32,1.32,0,0,0,1.14-.5,8,8,0,0,0,.89-2.17A43.24,43.24,0,0,1,129.35,134.58Z" transform="translate(-3.06 -51.49)"/><path class="cls-5" d="M154.29,165.63q3.69-3.82,5.6-3.82a7.57,7.57,0,0,1,2.41.64q5,1.91,5,6.87,0,4.32-4.07,9.79a9.26,9.26,0,0,1-7.77,4.2,2.69,2.69,0,0,0-2,.51,7.29,7.29,0,0,0-.82,2.93,33.23,33.23,0,0,0-.26,3.81c0,4.25.55,7.3,1.66,9.17a2.64,2.64,0,0,0,2.29,1.4c1.18,0,2.88-.81,5.08-2.42q5.61-4.08,12.85-18.2c2.12-4.07,3.57-6.1,4.33-6.1s1.15.34,1.15,1c0,1-1.13,3.72-3.38,8.08a67.2,67.2,0,0,1-5.91,9.86,31.72,31.72,0,0,1-7.32,7.07,13,13,0,0,1-7.06,2.6,5,5,0,0,1-2-.38q-7.51-2.93-7.51-15.39c0-.34,0-.81.06-1.4s.07-1,.07-1.27Q147.41,172.76,154.29,165.63ZM155.43,181c1.36,0,2.91-1.37,4.65-4.13s2.61-5.15,2.61-7.19v-.26l-.26-2-2,2.8a55.21,55.21,0,0,0-3.76,6c-1.31,2.37-2,3.86-2,4.45C154.67,180.9,154.93,181,155.43,181Z" transform="translate(-3.06 -51.49)"/><path class="cls-5" d="M200.47,114.74a6.17,6.17,0,0,1,3.31-1.15,6.58,6.58,0,0,1,4.58,2.29q2.29,2.3,2.29,7.89a43.46,43.46,0,0,1-1.78,11.32,96.41,96.41,0,0,1-9.48,21.38Q192.72,168.05,187.5,172a9.32,9.32,0,0,0-3.76,5.15q-.69,2.87-1,12.92V192q0,12.6,3.43,17c.94,1.19,1.74,1.78,2.42,1.78s2.25-1,4.45-3q6.75-6.74,12.35-24.94,2.67-8.52,4.07-8.52c.25,0,.55.38.89,1.14v.13q0,1.78-2.67,9.54-9.42,27.36-18.71,27.36-5.85,0-9.54-9t-3.69-23.22q0-.63.06-2.1c.05-1,.07-1.72.07-2.23q.89-22,12.21-44.27Q195.14,117.92,200.47,114.74Zm6.24,10.68q.12-1.65.12-4.32a5.83,5.83,0,0,0-.12-1.91q-2.18,0-10.31,18.57t-10.69,29.52l-.5,2.29,1.9-1.91c1.45-1.27,3.52-4,6.24-8.14a116.63,116.63,0,0,0,6.74-11.58A59,59,0,0,0,206.71,125.42Z" transform="translate(-3.06 -51.49)"/><path class="cls-5" d="M231.26,165.76c1.36-1.95,2.5-2.93,3.44-2.93a4.26,4.26,0,0,1,1.65.38c.68.26,1,1,1,2.29q0,2.67-2.42,11.2-1.65,5.85-3.31,12.72a41.5,41.5,0,0,0-.76,8q0,9.28,2.42,9.28,5.08,0,12.85-28.5c.76-2.88,1.53-4.32,2.29-4.32.59,0,.89.51.89,1.52,0,1.45-.81,5.09-2.42,11q-3.56,12.47-5.91,17t-5.67,5.28a21.12,21.12,0,0,1-2.41.26,6.46,6.46,0,0,1-6-3.82q-1.66-3.18-1.66-9.92A62.4,62.4,0,0,1,227.19,180a23.88,23.88,0,0,0,1.15-5.21c0-.26-.05-.38-.13-.38q-.89,0-5.73,9.54a54.53,54.53,0,0,1-5.53,9.1q-2.1,2.47-4.14,2.48c-2.79,0-4.83-.79-6.1-2.36s-1.91-4.13-1.91-7.69c0-.26,0-.66.06-1.21s.07-1,.07-1.34a31.55,31.55,0,0,1,2.35-10.18c1.4-3.47,2.82-5.68,4.26-6.61a12.62,12.62,0,0,1,7-2.17,11.82,11.82,0,0,1,7.63,2.93c1.45,1.19,2.34,1.78,2.68,1.78S230.07,167.71,231.26,165.76Zm-7.38,6c-.59-1.87-1.4-2.8-2.41-2.8-.68,0-1.62.59-2.8,1.78a25.24,25.24,0,0,0-4.84,8.59,28.73,28.73,0,0,0-2.16,9.6,8,8,0,0,0,.13,1.78c.25,1.19.63,1.78,1.14,1.78q1.16,0,7.76-11.07,3.69-6.22,3.69-7.63A5.08,5.08,0,0,0,223.88,171.74Z" transform="translate(-3.06 -51.49)"/><text class="cls-6" transform="translate(33.49 198.87)"><tspan xml:space="preserve">   </tspan><tspan class="cls-7" x="24.04" y="0">F</tspan><tspan x="35.07" y="0">ruits </tspan><tspan class="cls-8" x="95.93" y="0">&amp;</tspan><tspan class="cls-9" x="108.39" y="0"> </tspan><tspan x="115.03" y="0">lé</tspan><tspan class="cls-10" x="135.06" y="0">gu</tspan><tspan class="cls-11" x="163.65" y="0">m</tspan><tspan class="cls-12" x="184.23" y="0">e</tspan><tspan x="195.7" y="0">s</tspan></text><text class="cls-13" transform="translate(100.53 228.14)">De<tspan class="cls-14" x="18.94" y="0">p</tspan><tspan class="cls-15" x="28.02" y="0">u</tspan><tspan class="cls-16" x="37.55" y="0">i</tspan><tspan class="cls-17" x="42.1" y="0">s 1</tspan><tspan class="cls-18" x="59.55" y="0">9</tspan><tspan x="69.03" y="0">94</tspan></text></svg>