<svg id="Calque_1" data-name="Calque 1" xmlns="http://www.w3.org/2000/svg" viewBox="0 0 293.27 247.62"><defs><style>.cls-1{fill:#edc085;}.cls-2,.cls-4{fill:none;stroke:#1d1d1b;}.cls-2{stroke-miterlimit:10;}.cls-3{fill:#f7dbb2;}.cls-4{stroke-linecap:round;stroke-linejoin:round;stroke-dasharray:5.99 3.99;}.cls-5{font-size:38.23px;}.cls-15,.cls-5,.cls-6,.cls-7,.cls-8{fill:#1d1d1b;}.cls-5,.cls-6{font-family:AboutLove, About Love;}.cls-6{font-size:109.17px;}.cls-8{font-size:36.42px;}.cls-15,.cls-8{font-family:SignPainter-HouseScript, SignPainter;}.cls-9{letter-spacing:-0.06em;}.cls-10,.cls-11{font-size:30.17px;}.cls-10{letter-spacing:-0.11em;}.cls-11{letter-spacing:0em;}.cls-12{letter-spacing:-0.01em;}.cls-13{letter-spacing:0em;}.cls-14{letter-spacing:0em;}.cls-15{font-size:23.58px;}.cls-16{letter-spacing:0em;}.cls-17{letter-spacing:0em;}.cls-18{letter-spacing:-0.01em;}.cls-19{letter-spacing:0em;}.cls-20{letter-spacing:-0.01em;}</style></defs><path class="cls-1" d="M169.58,55.57h0a56.54,56.54,0,0,0,19.89,3.58h0c13.85,0,27.06,5,36.33,13.7h0A49.39,49.39,0,0,0,242.25,83h0c12.65,4.77,22.33,13.87,26.61,25h0A40.48,40.48,0,0,0,279,122.91h0c9.27,8.72,13.74,20.36,12.29,32h0a35.51,35.51,0,0,0,2.13,17.13h0a35.86,35.86,0,0,1-4.16,33.49h0A37.34,37.34,0,0,0,283,221.94h0c-1.45,11.67-8.68,22.27-19.89,29.17h0a44.85,44.85,0,0,0-13.6,12.79h0c-6.93,10.16-18.62,17.36-32.17,19.8h0a53.73,53.73,0,0,0-18.57,7h0a56,56,0,0,1-38.9,7h0a57.85,57.85,0,0,0-20.33,0h0a56,56,0,0,1-38.9-7h0a53.65,53.65,0,0,0-18.57-7h0c-13.56-2.44-25.25-9.64-32.18-19.8h0a44.73,44.73,0,0,0-13.6-12.79h0c-11.21-6.9-18.44-17.5-19.89-29.17h0a37.1,37.1,0,0,0-6.28-16.38h0A35.86,35.86,0,0,1,6,172.07H6a35.39,35.39,0,0,0,2.13-17.13h0c-1.45-11.67,3-23.31,12.29-32h0A40.36,40.36,0,0,0,30.53,108h0c4.29-11.16,14-20.26,26.62-25h0A49.45,49.45,0,0,0,73.59,72.85h0c9.27-8.72,22.48-13.7,36.34-13.7h0a56.49,56.49,0,0,0,19.88-3.58h0A57.05,57.05,0,0,1,169.58,55.57Z" transform="translate(-3.06 -51.49)"/><path class="cls-2" d="M169.58,55.57h0a56.54,56.54,0,0,0,19.89,3.58h0c13.85,0,27.06,5,36.33,13.7h0A49.39,49.39,0,0,0,242.25,83h0c12.65,4.77,22.33,13.87,26.61,25h0A40.48,40.48,0,0,0,279,122.91h0c9.27,8.72,13.74,20.36,12.29,32h0a35.51,35.51,0,0,0,2.13,17.13h0a35.86,35.86,0,0,1-4.16,33.49h0A37.34,37.34,0,0,0,283,221.94h0c-1.45,11.67-8.68,22.27-19.89,29.17h0a44.85,44.85,0,0,0-13.6,12.79h0c-6.93,10.16-18.62,17.36-32.17,19.8h0a53.73,53.73,0,0,0-18.57,7h0a56,56,0,0,1-38.9,7h0a57.85,57.85,0,0,0-20.33,0h0a56,56,0,0,1-38.9-7h0a53.65,53.65,0,0,0-18.57-7h0c-13.56-2.44-25.25-9.64-32.18-19.8h0a44.73,44.73,0,0,0-13.6-12.79h0c-11.21-6.9-18.44-17.5-19.89-29.17h0a37.1,37.1,0,0,0-6.28-16.38h0A35.86,35.86,0,0,1,6,172.07H6a35.39,35.39,0,0,0,2.13-17.13h0c-1.45-11.67,3-23.31,12.29-32h0A40.36,40.36,0,0,0,30.53,108h0c4.29-11.16,14-20.26,26.62-25h0A49.45,49.45,0,0,0,73.59,72.85h0c9.27-8.72,22.48-13.7,36.34-13.7h0a56.49,56.49,0,0,0,19.88-3.58h0A57.05,57.05,0,0,1,169.58,55.57Z" transform="translate(-3.06 -51.49)"/><path class="cls-3" d="M168.56,61.75h0a53.74,53.74,0,0,0,18.86,3.39h0c13.14,0,25.66,4.72,34.45,13h0a47,47,0,0,0,15.6,9.6h0c12,4.53,21.18,13.16,25.24,23.74h0a38.5,38.5,0,0,0,9.64,14.14h0c8.8,8.27,13,19.31,11.66,30.38h0a33.68,33.68,0,0,0,2,16.24h0A34,34,0,0,1,282.08,204h0a35.29,35.29,0,0,0-6,15.53h0c-1.37,11.07-8.22,21.13-18.86,27.67h0a42.52,42.52,0,0,0-12.9,12.13h0c-6.57,9.64-17.66,16.46-30.51,18.78h0a50.86,50.86,0,0,0-17.62,6.64h0a53.09,53.09,0,0,1-36.89,6.64h0a54.77,54.77,0,0,0-19.28,0h0a53.11,53.11,0,0,1-36.9-6.64h0a50.89,50.89,0,0,0-17.61-6.64h0C72.69,275.79,61.6,269,55,259.33h0a42.4,42.4,0,0,0-12.9-12.13h0c-10.63-6.54-17.49-16.6-18.86-27.67h0a35.29,35.29,0,0,0-6-15.53h0a34,34,0,0,1-3.94-31.77h0a33.56,33.56,0,0,0,2-16.24h0C14,144.92,18.25,133.88,27,125.61h0a38.38,38.38,0,0,0,9.64-14.14h0c4.06-10.58,13.23-19.21,25.24-23.74h0a46.87,46.87,0,0,0,15.6-9.6h0c8.79-8.27,21.32-13,34.46-13h0a53.83,53.83,0,0,0,18.86-3.39h0A54,54,0,0,1,168.56,61.75Z" transform="translate(-3.06 -51.49)"/><path class="cls-4" d="M168.56,61.75h0a53.74,53.74,0,0,0,18.86,3.39h0c13.14,0,25.66,4.72,34.45,13h0a47,47,0,0,0,15.6,9.6h0c12,4.53,21.18,13.16,25.24,23.74h0a38.5,38.5,0,0,0,9.64,14.14h0c8.8,8.27,13,19.31,11.66,30.38h0a33.68,33.68,0,0,0,2,16.24h0A34,34,0,0,1,282.08,204h0a35.29,35.29,0,0,0-6,15.53h0c-1.37,11.07-8.22,21.13-18.86,27.67h0a42.52,42.52,0,0,0-12.9,12.13h0c-6.57,9.64-17.66,16.46-30.51,18.78h0a50.86,50.86,0,0,0-17.62,6.64h0a53.09,53.09,0,0,1-36.89,6.64h0a54.77,54.77,0,0,0-19.28,0h0a53.11,53.11,0,0,1-36.9-6.64h0a50.89,50.89,0,0,0-17.61-6.64h0C72.69,275.79,61.6,269,55,259.33h0a42.4,42.4,0,0,0-12.9-12.13h0c-10.63-6.54-17.49-16.6-18.86-27.67h0a35.29,35.29,0,0,0-6-15.53h0a34,34,0,0,1-3.94-31.77h0a33.56,33.56,0,0,0,2-16.24h0C14,144.92,18.25,133.88,27,125.61h0a38.38,38.38,0,0,0,9.64-14.14h0c4.06-10.58,13.23-19.21,25.24-23.74h0a46.87,46.87,0,0,0,15.6-9.6h0c8.79-8.27,21.32-13,34.46-13h0a53.83,53.83,0,0,0,18.86-3.39h0A54,54,0,0,1,168.56,61.75Z" transform="translate(-3.06 -51.49)"/><text class="cls-5" transform="translate(122.14 78.58)">Chez</text><text class="cls-6" transform="translate(66.04 158.41)">Estela</text><path class="cls-7" d="M58.18,103.31c-.62-.18-.71-.49,0-1.13,4.13-4.13,7.12-9,11-11.81,2.9-2.13,6-3.12,9.12-1.08C81,91.06,81.44,94.1,81,97.45c-.73,5-4.22,11.64-9.58,17.74a7.43,7.43,0,0,1-3.23,2.14,74.64,74.64,0,0,0,2.68,11.13c.18.51,0,.71-.56.75-1.09,0-2.56-.56-3.78-3.07-2.09-4.22-4.16-15-3.66-24.08C60.92,103.39,59.38,103.63,58.18,103.31ZM76,91.21c-2.68-1.52-7,4.46-10,8,.81,1,1.29,2.82,1.29,5.82.06,2.84.08,5.74.43,9.06C77,103.45,79.39,93.29,76,91.21Z" transform="translate(-3.06 -51.49)"/><path class="cls-7" d="M93.1,91c.5-.69.92-1,1.49-.84,1.54.4,3.78,1.73,2.86,3.95-1.43,3.43-2.56,7.52-2.16,10.2s1.93,4,3.37,3.31c2-.92,3-4.8,3.24-8.78,0-.45.35-.64.72-.38a3.67,3.67,0,0,1,1,2.89A9,9,0,0,1,99,109c-3.53,1.71-6.58-.18-7.17-4.1-.52-3.44.9-8.19,2.13-11.32a18,18,0,0,1-5.5,5.07c-.44,4.15-1.52,13.06.18,17.33.15.43,0,.81-.64.73-2.15-.31-3.48-2.12-3.6-5.07-.14-2.53.72-8.59,1.41-12-4,.32-2.31-7.51-.13-8.75,1.76-1,2.62,1.74,2.75,5.19A19.65,19.65,0,0,0,93.1,91Z" transform="translate(-3.06 -51.49)"/><path class="cls-7" d="M117.37,89.8c0,4.35-1.88,10.09-5.17,12.66a6.82,6.82,0,0,1-7.25.66c-3.4-1.57-4.55-5.74-3.61-10.45.76-4,3.29-8.08,6.83-9.54a4.63,4.63,0,0,1,4.58.21c1.83,1,3.69.82,4.34,4.3,0,.39.15.72.21,1.11.34-.1.65-.29,1.11-.43s.47.12.31.42A2.65,2.65,0,0,1,117.37,89.8Zm-5.18.38a6.08,6.08,0,0,1-4.07-3.13,16.11,16.11,0,0,0-2.7,6c-.93,4.4.17,8.85,1.9,9.27,1.88.42,4.28-2.38,5.46-7.56a28.3,28.3,0,0,0,.67-4.37A4.47,4.47,0,0,1,112.19,90.18Zm.57-4.78c-.77-1.4-1.87-.72-1.7.72A3.61,3.61,0,0,0,113.43,89,7.72,7.72,0,0,0,112.76,85.4Z" transform="translate(-3.06 -51.49)"/><path class="cls-7" d="M136,95.12c2.17-.45,4.65-4.07,6.34-7.63.24-.46.64-.5.91-.13a3.78,3.78,0,0,1-.17,3.06c-1.27,2.82-4.26,5.77-7.18,6.1s-4.6-.81-5.06-3.07c-1.38,2.27-3.35,4.55-5.8,5.19-4.75,1.27-7.77-4.28-4.69-11.27,3.06-6.73,7.7-9.93,10.78-10.44,2.55-.44,4,.9,4.2,2.7,2.48-5.48,6.8-12.6,9.1-15.25.63-.73,1.24-.72,1.62-.1,1.05,1.56.89,3.65-1.54,7.5-2.87,4.4-7.74,13.11-9.59,18.7C133.88,93.53,134.21,95.51,136,95.12ZM124.63,88.3c-2.08,4.85-1.45,9.11.6,8.62s4.33-3.94,6.2-8.81c2.35-5.94,2.92-9.12,1.11-8.89S126.73,83.35,124.63,88.3Z" transform="translate(-3.06 -51.49)"/><path class="cls-7" d="M145,95.21c-3.8.1-4.38-3.43-3.49-6.79a37.46,37.46,0,0,1,7.27-13.07,1.08,1.08,0,0,1,1.62-.11c1.44,1.58,1.13,3.78-.9,6.65a36,36,0,0,0-4.09,7.44c-1,2.49-.65,4.23.6,4.23,2.12,0,4.89-3.59,8-7.87,3.62-5,5.58-8.31,7.65-10.33.66-.66,1.11-.73,1.58-.21.9.93,1.22,3.11-.37,5.46-1.47,2.12-4.53,5.68-5.84,8.17-1.5,2.77-1.25,4.82.69,4.76,2.27-.06,5.18-3.14,7.71-6.38.32-.41.84-.42,1,0a3.75,3.75,0,0,1-.77,3c-1.88,2.59-5.34,4.86-8.48,4.82-3.47,0-4.93-2-4.55-4.84C150.73,92.55,148,95.15,145,95.21Z" transform="translate(-3.06 -51.49)"/><path class="cls-7" d="M183.08,80.79c.83,2.27-2.09,4.31-3.71,6.7-.34.54-.59.64-1.27.17-1.26-.82-1.85-2.4-.67-4.44.94-1.63,3.13-3.37,2.38-4-.92-.89-6.07,1.46-9.19,5.6-3.8,5.16-2.9,9.31.22,9.74,4.48.63,9-2.45,12.07-5a.57.57,0,0,1,1,.28c.09.42-.42,1.56-1.64,2.64a16,16,0,0,1-11.39,3.42c-6.66-.71-8.86-6.78-4.59-12.84,4.27-5.88,11.13-7.6,14-5.56A7.19,7.19,0,0,1,183.08,80.79Z" transform="translate(-3.06 -51.49)"/><path class="cls-7" d="M188.18,77.72c-.46-.82,0-1.07.91-.79,1.73.47,3.48.83,5.19,1.16a43,43,0,0,1,6.53-4.36c.77-.42,1.4-.17,1.53.5.27,1.53-.28,3-2.55,5,2.41.74,3,1.91,3.29,2.68s-.13.94-1,.62a20.5,20.5,0,0,0-4.76-1.37,70.31,70.31,0,0,0-11.08,9.5c-2.69,3-2.73,6.12-.56,6.77,2.34.69,6.29-1.77,9.49-4.58.52-.45,1.16-.34,1.16.39s-.53,1.57-1.43,2.46c-1.19,1.1-5.92,4.07-10,2.89-3.36-.95-5.58-5.07-1.72-10a68.39,68.39,0,0,1,8.72-8.6A6.27,6.27,0,0,1,188.18,77.72Z" transform="translate(-3.06 -51.49)"/><path class="cls-7" d="M197.8,101.17c4.17,1.75,9.41-.17,13.13-2a.55.55,0,0,1,.87.48c0,.46-.73,1.6-2.21,2.3a16.65,16.65,0,0,1-12.13.58c-6.39-2.22-7.22-8.7-1.67-13.63s12.8-4.87,15.14-2.26a10.35,10.35,0,0,1,2.35,3.85c.53,1.55-1.24,4-4.54,5.24C204.86,97.24,201,97,198,93,194.81,96.69,195.15,100,197.8,101.17Zm8.59-8.72c2.56-1.16,4.87-2.91,4.28-3.76-.88-1.32-6.89-.61-11.06,2.87-.27.22-.53.44-.72.63C201.08,94.58,204,93.49,206.39,92.45Z" transform="translate(-3.06 -51.49)"/><path class="cls-7" d="M234.26,124.43c-3.27-3-2.6-6.64,1-8.8,3-1.79,8.37-2.12,12-2a20.91,20.91,0,0,1-7.08-3.62c-6.71,2.89-15.21,6.23-20.43,3.44-2.94-1.56-3.34-4.07-1.7-6.36-2.91,1-6.46,1.75-9.07.23-3.42-1.94-2-5.24.47-7.6a34.62,34.62,0,0,1,13.12-7.21c.69-.19,1.17,0,1.32.67.55,2.18-.77,3.72-4.12,5.21a37.48,37.48,0,0,0-7.49,4.12c-2.11,1.63-2.7,3.25-1.65,3.89,1.86,1.11,6.18-.4,11.06-2.38,5.83-2.38,9.17-4.08,12.06-4.68.81-.16,1.25,0,1.45.64.37,1.21-.48,3.25-3.11,4.39-2.36,1-7,2.39-9.37,3.84-2.71,1.6-3.44,3.38-1.9,4.19,3.16,1.64,10.59-.76,17.56-4.12-3.19-4.29,5.63-5.92,7.95-4.18,1.75,1.32-.65,3.27-3.8,4.86a25.56,25.56,0,0,0,7,3c.92.18,1.51.53,1.57,1.26.15,1.62-.25,4.36-2.81,4.21-4-.22-8.45.38-10.88,1.59-2.61,1.32-3.31,3.28-2,4.56,1.66,1.57,6,1.25,10,0,.49-.14.8.16.66.65a3.6,3.6,0,0,1-2.46,2A10.19,10.19,0,0,1,234.26,124.43Z" transform="translate(-3.06 -51.49)"/><text class="cls-8" transform="translate(33.49 198.87)"><tspan xml:space="preserve">   </tspan><tspan class="cls-9" x="24.04" y="0">F</tspan><tspan x="35.07" y="0">ruits </tspan><tspan class="cls-10" x="95.93" y="0">&amp;</tspan><tspan class="cls-11" x="108.39" y="0"> </tspan><tspan x="115.03" y="0">lé</tspan><tspan class="cls-12" x="135.06" y="0">gu</tspan><tspan class="cls-13" x="163.65" y="0">m</tspan><tspan class="cls-14" x="184.23" y="0">e</tspan><tspan x="195.7" y="0">s</tspan></text><text class="cls-15" transform="translate(100.53 228.14)">De<tspan class="cls-16" x="18.94" y="0">p</tspan><tspan class="cls-17" x="28.02" y="0">u</tspan><tspan class="cls-18" x="37.55" y="0">i</tspan><tspan class="cls-19" x="42.1" y="0">s 1</tspan><tspan class="cls-20" x="59.55" y="0">9</tspan><tspan x="69.03" y="0">94</tspan></text></svg>