<svg id="Calque_1" data-name="Calque 1" xmlns="http://www.w3.org/2000/svg" viewBox="0 0 293.27 247.62"><defs><style>.cls-1{fill:#edc085;}.cls-2,.cls-4{fill:none;stroke:#1d1d1b;}.cls-2{stroke-miterlimit:10;}.cls-3{fill:#f7dbb2;}.cls-4{stroke-linecap:round;stroke-linejoin:round;stroke-dasharray:5.99 3.99;}.cls-5{fill:#1d1d1b;}</style></defs><path class="cls-1" d="M169.58,55.57h0a56.54,56.54,0,0,0,19.89,3.58h0c13.85,0,27.06,5,36.33,13.7h0A49.39,49.39,0,0,0,242.25,83h0c12.65,4.77,22.33,13.87,26.61,25h0A40.48,40.48,0,0,0,279,122.91h0c9.27,8.72,13.74,20.36,12.29,32h0a35.51,35.51,0,0,0,2.13,17.13h0a35.86,35.86,0,0,1-4.16,33.49h0A37.34,37.34,0,0,0,283,221.94h0c-1.45,11.67-8.68,22.27-19.89,29.17h0a44.85,44.85,0,0,0-13.6,12.79h0c-6.93,10.16-18.62,17.36-32.17,19.8h0a53.73,53.73,0,0,0-18.57,7h0a56,56,0,0,1-38.9,7h0a57.85,57.85,0,0,0-20.33,0h0a56,56,0,0,1-38.9-7h0a53.65,53.65,0,0,0-18.57-7h0c-13.56-2.44-25.25-9.64-32.18-19.8h0a44.73,44.73,0,0,0-13.6-12.79h0c-11.21-6.9-18.44-17.5-19.89-29.17h0a37.1,37.1,0,0,0-6.28-16.38h0A35.86,35.86,0,0,1,6,172.07H6a35.39,35.39,0,0,0,2.13-17.13h0c-1.45-11.67,3-23.31,12.29-32h0A40.36,40.36,0,0,0,30.53,108h0c4.29-11.16,14-20.26,26.62-25h0A49.45,49.45,0,0,0,73.59,72.85h0c9.27-8.72,22.48-13.7,36.34-13.7h0a56.49,56.49,0,0,0,19.88-3.58h0A57.05,57.05,0,0,1,169.58,55.57Z" transform="translate(-3.06 -51.49)"/><path class="cls-2" d="M169.58,55.57h0a56.54,56.54,0,0,0,19.89,3.58h0c13.85,0,27.06,5,36.33,13.7h0A49.39,49.39,0,0,0,242.25,83h0c12.65,4.77,22.33,13.87,26.61,25h0A40.48,40.48,0,0,0,279,122.91h0c9.27,8.72,13.74,20.36,12.29,32h0a35.51,35.51,0,0,0,2.13,17.13h0a35.86,35.86,0,0,1-4.16,33.49h0A37.34,37.34,0,0,0,283,221.94h0c-1.45,11.67-8.68,22.27-19.89,29.17h0a44.85,44.85,0,0,0-13.6,12.79h0c-6.93,10.16-18.62,17.36-32.17,19.8h0a53.73,53.73,0,0,0-18.57,7h0a56,56,0,0,1-38.9,7h0a57.85,57.85,0,0,0-20.33,0h0a56,56,0,0,1-38.9-7h0a53.65,53.65,0,0,0-18.57-7h0c-13.56-2.44-25.25-9.64-32.18-19.8h0a44.73,44.73,0,0,0-13.6-12.79h0c-11.21-6.9-18.44-17.5-19.89-29.17h0a37.1,37.1,0,0,0-6.28-16.38h0A35.86,35.86,0,0,1,6,172.07H6a35.39,35.39,0,0,0,2.13-17.13h0c-1.45-11.67,3-23.31,12.29-32h0A40.36,40.36,0,0,0,30.53,108h0c4.29-11.16,14-20.26,26.62-25h0A49.45,49.45,0,0,0,73.59,72.85h0c9.27-8.72,22.48-13.7,36.34-13.7h0a56.49,56.49,0,0,0,19.88-3.58h0A57.05,57.05,0,0,1,169.58,55.57Z" transform="translate(-3.06 -51.49)"/><path class="cls-3" d="M168.56,61.75h0a53.74,53.74,0,0,0,18.86,3.39h0c13.14,0,25.66,4.72,34.45,13h0a47,47,0,0,0,15.6,9.6h0c12,4.53,21.18,13.16,25.24,23.74h0a38.5,38.5,0,0,0,9.64,14.14h0c8.8,8.27,13,19.31,11.66,30.38h0a33.68,33.68,0,0,0,2,16.24h0A34,34,0,0,1,282.08,204h0a35.29,35.29,0,0,0-6,15.53h0c-1.37,11.07-8.22,21.13-18.86,27.67h0a42.52,42.52,0,0,0-12.9,12.13h0c-6.57,9.64-17.66,16.46-30.51,18.78h0a50.86,50.86,0,0,0-17.62,6.64h0a53.09,53.09,0,0,1-36.89,6.64h0a54.77,54.77,0,0,0-19.28,0h0a53.11,53.11,0,0,1-36.9-6.64h0a50.89,50.89,0,0,0-17.61-6.64h0C72.69,275.79,61.6,269,55,259.33h0a42.4,42.4,0,0,0-12.9-12.13h0c-10.63-6.54-17.49-16.6-18.86-27.67h0a35.29,35.29,0,0,0-6-15.53h0a34,34,0,0,1-3.94-31.77h0a33.56,33.56,0,0,0,2-16.24h0C14,144.92,18.25,133.88,27,125.61h0a38.38,38.38,0,0,0,9.64-14.14h0c4.06-10.58,13.23-19.21,25.24-23.74h0a46.87,46.87,0,0,0,15.6-9.6h0c8.79-8.27,21.32-13,34.46-13h0a53.83,53.83,0,0,0,18.86-3.39h0A54,54,0,0,1,168.56,61.75Z" transform="translate(-3.06 -51.49)"/><path class="cls-4" d="M168.56,61.75h0a53.74,53.74,0,0,0,18.86,3.39h0c13.14,0,25.66,4.72,34.45,13h0a47,47,0,0,0,15.6,9.6h0c12,4.53,21.18,13.16,25.24,23.74h0a38.5,38.5,0,0,0,9.64,14.14h0c8.8,8.27,13,19.31,11.66,30.38h0a33.68,33.68,0,0,0,2,16.24h0A34,34,0,0,1,282.08,204h0a35.29,35.29,0,0,0-6,15.53h0c-1.37,11.07-8.22,21.13-18.86,27.67h0a42.52,42.52,0,0,0-12.9,12.13h0c-6.57,9.64-17.66,16.46-30.51,18.78h0a50.86,50.86,0,0,0-17.62,6.64h0a53.09,53.09,0,0,1-36.89,6.64h0a54.77,54.77,0,0,0-19.28,0h0a53.11,53.11,0,0,1-36.9-6.64h0a50.89,50.89,0,0,0-17.61-6.64h0C72.69,275.79,61.6,269,55,259.33h0a42.4,42.4,0,0,0-12.9-12.13h0c-10.63-6.54-17.49-16.6-18.86-27.67h0a35.29,35.29,0,0,0-6-15.53h0a34,34,0,0,1-3.94-31.77h0a33.56,33.56,0,0,0,2-16.24h0C14,144.92,18.25,133.88,27,125.61h0a38.38,38.38,0,0,0,9.64-14.14h0c4.06-10.58,13.23-19.21,25.24-23.74h0a46.87,46.87,0,0,0,15.6-9.6h0c8.79-8.27,21.32-13,34.46-13h0a53.83,53.83,0,0,0,18.86-3.39h0A54,54,0,0,1,168.56,61.75Z" transform="translate(-3.06 -51.49)"/><path class="cls-5" d="M123.54,72.14a5.6,5.6,0,0,1,1.4-.13,8.29,8.29,0,0,1,3.95,1,6.12,6.12,0,0,1,2.67,2.52,8.18,8.18,0,0,1,.67,3.46,12,12,0,0,1-.7,4.17c-.46,1.27-1,1.93-1.73,2a.46.46,0,0,0-.18.06h-.12c-.57,0-.85-.26-.85-.79a3.48,3.48,0,0,1,.24-1.15,11.75,11.75,0,0,0,.42-3.77,11.72,11.72,0,0,0-.3-3c-.41-1.5-1.11-2.25-2.13-2.25s-2.85,1.1-5,3.28a31.46,31.46,0,0,0-8.57,16.78,33.44,33.44,0,0,0-.54,6.31,18.66,18.66,0,0,0,.48,4.74q2.07,7.11,5.9,7.11a4.25,4.25,0,0,0,2-.48,13.76,13.76,0,0,0,5.17-5,60.85,60.85,0,0,0,5.65-11.66,31.33,31.33,0,0,1,1.24-2.89,1.08,1.08,0,0,1,.82-.52h.25c.4,0,.6.19.6.55a7.53,7.53,0,0,1-.6,2.19q-4.38,11.67-8,15.43c-2.34,2.39-4.82,3.59-7.41,3.59h-.73q-5.71-.44-8.44-8.33a20.77,20.77,0,0,1-1-6.74c0-.16,0-.44,0-.82s0-.68,0-.88a32.92,32.92,0,0,1,3.41-13.67,26.3,26.3,0,0,1,5.37-7.36A13.36,13.36,0,0,1,123.54,72.14Z" transform="translate(-3.06 -51.49)"/><path class="cls-5" d="M147.48,63.75a2.43,2.43,0,0,1,2.19,1.46,6.87,6.87,0,0,1,.79,3.34q0,6.51-6.75,16.65a38.69,38.69,0,0,1-3.49,4.5,17.51,17.51,0,0,1-3.13,2.91,1.91,1.91,0,0,0-.76,1.28c-.1.57-.19,2.39-.27,5.47l-.12,6.2,1-3a31.46,31.46,0,0,1,3.77-7.78c1.5-2.19,2.77-3.28,3.83-3.28a3.32,3.32,0,0,1,1.94,1.21,4.29,4.29,0,0,1,1,1.37,6.68,6.68,0,0,1,.19,1.92,30.21,30.21,0,0,1-1.4,7.11,38.07,38.07,0,0,0-1.7,7.83,4.31,4.31,0,0,0,.27,1.52c.18.49.43.73.76.73s1.05-.5,1.94-1.52c1.14-1.25,2.53-3.78,4.2-7.59A47.87,47.87,0,0,0,155,94.56c.16-.81.44-1.22.85-1.22h.18c.44,0,.67.41.67,1.1v.48q-.06,3-3.86,11.34t-6.53,8.35a3.15,3.15,0,0,1-2.07-1.18,5.92,5.92,0,0,1-1.52-2.53,13.56,13.56,0,0,1-.3-3.16,42,42,0,0,1,1.15-9.47,29,29,0,0,0,.73-3.83c-.16,0-.69.44-1.58,1.33q-3,3-4.8,9.91c-.69,2.55-1.25,3.83-1.7,3.83a1.36,1.36,0,0,1-.55-.19q-1.4-.72-2.34-5.53a54.6,54.6,0,0,1-.94-10.39,41.41,41.41,0,0,1,.55-7.11,38.78,38.78,0,0,1,6.2-15.43,29,29,0,0,1,3.34-4,12.91,12.91,0,0,1,3.22-2.55A6.48,6.48,0,0,1,147.48,63.75Zm1.22,5.77c0-.56.06-1.27.06-2.12v-.49c-.29,0-.91.52-1.89,1.55a31.55,31.55,0,0,0-2.67,3.25,47.13,47.13,0,0,0-7,16.47l-.48,2.31.91-.85a36.34,36.34,0,0,0,3.34-4,60.53,60.53,0,0,0,3.46-5C147,76.29,148.45,72.56,148.7,69.52Z" transform="translate(-3.06 -51.49)"/><path class="cls-5" d="M157.81,89c1.18-1.22,2.07-1.82,2.67-1.82a3.74,3.74,0,0,1,1.16.3A3.3,3.3,0,0,1,164,90.73a8.15,8.15,0,0,1-1.95,4.68,4.39,4.39,0,0,1-3.7,2,1.27,1.27,0,0,0-.94.25,3.31,3.31,0,0,0-.4,1.39,17.32,17.32,0,0,0-.12,1.83,9,9,0,0,0,.79,4.37,1.25,1.25,0,0,0,1.09.67,4.79,4.79,0,0,0,2.43-1.15q2.68-2,6.14-8.69c1-2,1.7-2.92,2.07-2.92s.54.16.54.49a13.76,13.76,0,0,1-1.61,3.86,32,32,0,0,1-2.82,4.7,15.19,15.19,0,0,1-3.5,3.38,6.18,6.18,0,0,1-3.37,1.24,2.47,2.47,0,0,1-1-.18q-3.58-1.4-3.59-7.35c0-.16,0-.39,0-.67s0-.49,0-.61A13.8,13.8,0,0,1,157.81,89Zm.55,7.35c.65,0,1.39-.66,2.22-2a6.75,6.75,0,0,0,1.24-3.44v-.12l-.12-1-1,1.34A25.21,25.21,0,0,0,158.94,94a7.2,7.2,0,0,0-.95,2.13C158,96.26,158.12,96.32,158.36,96.32Z" transform="translate(-3.06 -51.49)"/><path class="cls-5" d="M173.31,88.66a6.56,6.56,0,0,1,2.12-1.15,2.75,2.75,0,0,1,2.43,1.82,3.84,3.84,0,0,1,.43,1.76,12.69,12.69,0,0,1-1.58,5.11,8.52,8.52,0,0,0-1,2.43q0,.12.06.12h.12a12.17,12.17,0,0,1,2.19-.55,6.12,6.12,0,0,1,1.33-.18,5.13,5.13,0,0,1,1.95.49l1.64.73,2.85-2.55a30.39,30.39,0,0,0,3.16-3c.49-.49.85-.51,1.1-.06a1.49,1.49,0,0,1,.18.66q0,.85-3.34,3.89l-2.86,2.62.55,1.45a9.91,9.91,0,0,1,.48,3.1,27.13,27.13,0,0,1-2.55,10.21q-4,9.66-13.24,18.9-6,6-9.61,6a4.37,4.37,0,0,1-1.76-.31,3.55,3.55,0,0,1-2.24-3.64,6.9,6.9,0,0,1,.06-1,28,28,0,0,1,3.4-9.23,60.46,60.46,0,0,1,7.17-10.39q2.31-2.74,8.87-9.18,6-5.9,6-6.44c0-.12-.25-.18-.73-.18a12.62,12.62,0,0,0-4.32,1.12,12.09,12.09,0,0,0-3.89,2.22c-.81.81-1.35,1.21-1.64,1.21s-.61-.22-1-.66-.49-.55-.49-.67a2.38,2.38,0,0,1,.55-1,54,54,0,0,0,2.77-5.16q2.14-4.32,2.46-5.23.18-.54.09-.66c-.06-.09-.21-.07-.46.06A12.1,12.1,0,0,0,171.85,93c-1.34,1-2,1.59-2,1.79s-.16.18-.48-.06a1.26,1.26,0,0,1-.55-1c0-.45.51-1.23,1.52-2.34A16,16,0,0,1,173.31,88.66Zm8.26,18.23a15,15,0,0,0,.67-3.28q0-.54-.24-.54t-4.56,3.82q-13.12,12.17-17.75,21.76a19.43,19.43,0,0,0-2.24,8.32,3,3,0,0,0,.24,1.4.59.59,0,0,0,.55.3c1,0,2.75-1.29,5.34-3.89a83.17,83.17,0,0,0,11-13.85A57.31,57.31,0,0,0,181.57,106.89Z" transform="translate(-3.06 -51.49)"/><path class="cls-5" d="M73.25,131.53a23.84,23.84,0,0,1,7.5-1,18,18,0,0,1,7.51,1.27q8.77,4,8.78,11.46a1.68,1.68,0,0,1-.07.5,2.29,2.29,0,0,0-.06.51A24.3,24.3,0,0,1,94.05,153q-2.49,4.77-4.14,4.77c-.93,0-1.4-.34-1.4-1A15.21,15.21,0,0,1,89.66,153a31.12,31.12,0,0,0,2.16-10.3,17.33,17.33,0,0,0-.38-3.57c-.51-1.86-1.27-3-2.29-3.56a8.18,8.18,0,0,0-3.69-.76q-5,0-11.77,3.43a39.57,39.57,0,0,0-11.39,8.4q-5.46,5.85-5.47,11.2,0,6.23,7,9.28a36,36,0,0,0,13.87,2.42H79a9.6,9.6,0,0,0,1-.06c.38,0,.65-.07.82-.07a8,8,0,0,1,2.67.26,2,2,0,0,1,.64.7,1,1,0,0,1,.13.83.51.51,0,0,1-.51.38q-.51,0-.51,1c0,.68-.68,1.18-2,1.52q-5.09,1.28-12.08,7a46.82,46.82,0,0,0-10.44,11.32,22.38,22.38,0,0,0-3.81,11.84q0,4.71,2.67,7a3.88,3.88,0,0,0,2.67,1,10.37,10.37,0,0,0,1.78-.13,20.74,20.74,0,0,0,8.53-3,53.89,53.89,0,0,0,9.67-8.2,85.89,85.89,0,0,0,6.74-7.89,121.61,121.61,0,0,0,6.62-10.69c.67-1.27,1.44-2.63,2.29-4.07s1.48-2.56,1.9-3.37a10.62,10.62,0,0,1,.77-1.34,1,1,0,0,1,1.33-.38,1.41,1.41,0,0,1,.83,1.4c0,.94-1.53,4.26-4.58,10a103,103,0,0,1-7.25,12.15q-7.26,9.54-13.62,14a22.93,22.93,0,0,1-13.23,4.08,14.78,14.78,0,0,1-9-2.55q-4.57-3.44-4.58-10.69a22.54,22.54,0,0,1,.63-4.83q1.41-6,6.68-12.6a47.17,47.17,0,0,1,11.77-10.68,7.89,7.89,0,0,0,1.15-.83,6.71,6.71,0,0,0,.76-.76c.17-.21.21-.32.13-.32a32.21,32.21,0,0,0-3.56-1.15,25.17,25.17,0,0,1-11.07-6.1q-4.34-4.2-4.33-8.78v-1.53q.51-6.36,7.38-13.23A36.49,36.49,0,0,1,73.25,131.53Z" transform="translate(-3.06 -51.49)"/><path class="cls-5" d="M102.13,153a6.66,6.66,0,0,1,3.56-1,5.62,5.62,0,0,1,3.56,1.21,4.06,4.06,0,0,1,1.53,3.37c0,2.13-.76,3.19-2.29,3.19a4.27,4.27,0,0,1-1-.26,4,4,0,0,0-1.14-.13q-3.57,0-3.57,9.55,0,8.26,1.66,12.72a40,40,0,0,0,4.7,9.54l6.11-8.27q6-8.27,6.74-8.27c.34,0,.77.34,1.28,1a.37.37,0,0,1,.12.25q0,1.53-6.23,9.42l-6.87,8.9,1.4,4.46a29.31,29.31,0,0,1,1.4,9.29q0,9.41-5.47,15.52-4.71,5.08-9.8,5.09A5.59,5.59,0,0,1,93,226.32a4.5,4.5,0,0,1-.64-2.8q0-3.95,2.8-10.5a68.63,68.63,0,0,1,7.12-12.66l3.31-4.71-4.71-9.54Q96,176.2,96,167.41a20.8,20.8,0,0,1,2-9.42A11.75,11.75,0,0,1,102.13,153Zm4.7,53.82c.09-1,.13-2.25.13-3.69,0-2-.21-3-.63-3s-1.45,1-2.8,3a53.59,53.59,0,0,0-6,11.13q-2.36,5.93-2.35,9.48a5.33,5.33,0,0,0,.25,2c.17.51.41.76.7.76a6.29,6.29,0,0,0,2-.76Q106.07,221.61,106.83,206.85Z" transform="translate(-3.06 -51.49)"/><path class="cls-5" d="M129.35,134.58c.93-1.86,1.91-2.8,2.93-2.8a4.15,4.15,0,0,1,2.93,1.79,3.94,3.94,0,0,1,1.27,2.29c0,.17-.3,1.52-.89,4.07a21.4,21.4,0,0,0-.77,4.07c0,.59.17,1,.51,1.14q1,.51,7.25,1.4a50.78,50.78,0,0,0,5.86.39q5.72,0,7.76-2.42l1.4-1.66,1.14,1.66a4.36,4.36,0,0,1,1,2.42c0,.76-.64,1.52-1.91,2.29q-2.55,1.65-7.63,1.65a50.49,50.49,0,0,1-9-.89,55.39,55.39,0,0,0-7.5-1l-.38.13q-.39.38-1.78,6.23a157.11,157.11,0,0,0-5.22,39.32q0,14.12,3.31,18.06l1.65,1.91,2.29-1.91q2.41-2,5.85-9.48a128.45,128.45,0,0,0,6.24-16.73l1.59-5.28c.55-1.82,1-3.26,1.33-4.32a17.44,17.44,0,0,0,.51-1.72q.26-.88,1.53-.51a1.73,1.73,0,0,1,.89,1.78q0,2.81-3.56,13.49Q139.4,216,132.15,216q-12.09,0-12.09-31.55a136.53,136.53,0,0,1,3.31-31.05,31,31,0,0,0,1.15-6.36c0-.25-2.34-.72-7-1.4a39.26,39.26,0,0,0-5.47-.51,12.06,12.06,0,0,0-4.71,1,15.7,15.7,0,0,1-3.18,1,1.22,1.22,0,0,1-1-.51,1.79,1.79,0,0,1-.25-1,2.94,2.94,0,0,1,1-2,6.33,6.33,0,0,1,2.8-1.53,17.73,17.73,0,0,1,5.08-.51,84.46,84.46,0,0,1,11.33,1c1.19.17,1.82.25,1.91.25a1.32,1.32,0,0,0,1.14-.5,8,8,0,0,0,.89-2.17A43.24,43.24,0,0,1,129.35,134.58Z" transform="translate(-3.06 -51.49)"/><path class="cls-5" d="M154.29,165.63q3.69-3.82,5.6-3.82a7.57,7.57,0,0,1,2.41.64q5,1.91,5,6.87,0,4.32-4.07,9.79a9.26,9.26,0,0,1-7.77,4.2,2.69,2.69,0,0,0-2,.51,7.29,7.29,0,0,0-.82,2.93,33.23,33.23,0,0,0-.26,3.81c0,4.25.55,7.3,1.66,9.17a2.64,2.64,0,0,0,2.29,1.4c1.18,0,2.88-.81,5.08-2.42q5.61-4.08,12.85-18.2c2.12-4.07,3.57-6.1,4.33-6.1s1.15.34,1.15,1c0,1-1.13,3.72-3.38,8.08a67.2,67.2,0,0,1-5.91,9.86,31.72,31.72,0,0,1-7.32,7.07,13,13,0,0,1-7.06,2.6,5,5,0,0,1-2-.38q-7.51-2.93-7.51-15.39c0-.34,0-.81.06-1.4s.07-1,.07-1.27Q147.41,172.76,154.29,165.63ZM155.43,181c1.36,0,2.91-1.37,4.65-4.13s2.61-5.15,2.61-7.19v-.26l-.26-2-2,2.8a55.21,55.21,0,0,0-3.76,6c-1.31,2.37-2,3.86-2,4.45C154.67,180.9,154.93,181,155.43,181Z" transform="translate(-3.06 -51.49)"/><path class="cls-5" d="M200.47,114.74a6.17,6.17,0,0,1,3.31-1.15,6.58,6.58,0,0,1,4.58,2.29q2.29,2.3,2.29,7.89a43.46,43.46,0,0,1-1.78,11.32,96.41,96.41,0,0,1-9.48,21.38Q192.72,168.05,187.5,172a9.32,9.32,0,0,0-3.76,5.15q-.69,2.87-1,12.92V192q0,12.6,3.43,17c.94,1.19,1.74,1.78,2.42,1.78s2.25-1,4.45-3q6.75-6.74,12.35-24.94,2.67-8.52,4.07-8.52c.25,0,.55.38.89,1.14v.13q0,1.78-2.67,9.54-9.42,27.36-18.71,27.36-5.85,0-9.54-9t-3.69-23.22q0-.63.06-2.1c.05-1,.07-1.72.07-2.23q.89-22,12.21-44.27Q195.14,117.92,200.47,114.74Zm6.24,10.68q.12-1.65.12-4.32a5.83,5.83,0,0,0-.12-1.91q-2.18,0-10.31,18.57t-10.69,29.52l-.5,2.29,1.9-1.91c1.45-1.27,3.52-4,6.24-8.14a116.63,116.63,0,0,0,6.74-11.58A59,59,0,0,0,206.71,125.42Z" transform="translate(-3.06 -51.49)"/><path class="cls-5" d="M231.26,165.76c1.36-1.95,2.5-2.93,3.44-2.93a4.26,4.26,0,0,1,1.65.38c.68.26,1,1,1,2.29q0,2.67-2.42,11.2-1.65,5.85-3.31,12.72a41.5,41.5,0,0,0-.76,8q0,9.28,2.42,9.28,5.08,0,12.85-28.5c.76-2.88,1.53-4.32,2.29-4.32.59,0,.89.51.89,1.52,0,1.45-.81,5.09-2.42,11q-3.56,12.47-5.91,17t-5.67,5.28a21.12,21.12,0,0,1-2.41.26,6.46,6.46,0,0,1-6-3.82q-1.66-3.18-1.66-9.92A62.4,62.4,0,0,1,227.19,180a23.88,23.88,0,0,0,1.15-5.21c0-.26-.05-.38-.13-.38q-.89,0-5.73,9.54a54.53,54.53,0,0,1-5.53,9.1q-2.1,2.47-4.14,2.48c-2.79,0-4.83-.79-6.1-2.36s-1.91-4.13-1.91-7.69c0-.26,0-.66.06-1.21s.07-1,.07-1.34a31.55,31.55,0,0,1,2.35-10.18c1.4-3.47,2.82-5.68,4.26-6.61a12.62,12.62,0,0,1,7-2.17,11.82,11.82,0,0,1,7.63,2.93c1.45,1.19,2.34,1.78,2.68,1.78S230.07,167.71,231.26,165.76Zm-7.38,6c-.59-1.87-1.4-2.8-2.41-2.8-.68,0-1.62.59-2.8,1.78a25.24,25.24,0,0,0-4.84,8.59,28.73,28.73,0,0,0-2.16,9.6,8,8,0,0,0,.13,1.78c.25,1.19.63,1.78,1.14,1.78q1.16,0,7.76-11.07,3.69-6.22,3.69-7.63A5.08,5.08,0,0,0,223.88,171.74Z" transform="translate(-3.06 -51.49)"/><path class="cls-5" d="M67,229.35c-.08-.3,0-.44.4-.44,3,.14,6.88-.91,8.92-.91a3,3,0,0,1,3,1.86c.11.29,0,.54-.44.54a44.87,44.87,0,0,0-7.5,1c-1.28,2.08-3,5-4.77,8.31a17.44,17.44,0,0,1,2.44-.3c1.82-.1,2.73.66,3.06,1.75.11.33,0,.55-.4.55a30.39,30.39,0,0,0-6.71,1c-1.38,2.69-2.73,5.43-3.78,7.87-.15.36-.37.36-.62.14-.7-.58-1.06-1.75-.29-4,1.09-3.21,4.91-10.35,8.12-15.56A2.65,2.65,0,0,1,67,229.35Z" transform="translate(-3.06 -51.49)"/><path class="cls-5" d="M81.38,237.18c.44-.3.73-.37,1-.08.69.77,1.57,2.37.51,3.57-1.64,1.86-3.42,4.16-4,6.05s-.15,3.31.91,3.35c1.42.07,3.17-2.19,4.33-4.81.15-.29.37-.33.51,0a3.16,3.16,0,0,1-.18,2.25,5.48,5.48,0,0,1-4.88,3.57c-2.62-.11-3.68-2.51-2.77-5.24.8-2.41,2.91-5,4.37-6.67a7.9,7.9,0,0,1-4.26,1.39c-1.38,2.55-4.88,7.72-5.57,11-.08.33-.29.51-.62.19-1.06-1.1-1.06-2.77-.08-4.63.84-1.6,3.28-5,4.63-7-2.08-1.34,1.09-5.64,2.44-5.68,1.13,0,.84,2.08-.07,4.37A8.65,8.65,0,0,0,81.38,237.18Z" transform="translate(-3.06 -51.49)"/><path class="cls-5" d="M85.53,250.83c-2.59-.18-2.66-2.87-1.86-5.28a38.94,38.94,0,0,1,5-9.28.55.55,0,0,1,1,0c.8,1.2.62,2.84-.7,4.92a38,38,0,0,0-2.84,5.35c-.76,1.79-.65,3.1.19,3.17,1.42.11,3.42-2.44,5.39-5.61,2.29-3.72,3.35-6.23,4.51-7.79.37-.51.62-.59.91-.22a4,4,0,0,1,0,4.08c-.8,1.64-2.63,4.37-3.46,6.22-1,2.08-.8,3.61.51,3.54,1.53-.07,3.38-2.48,4.8-5,.19-.33.51-.36.66,0a3.14,3.14,0,0,1-.33,2.29c-1.05,2-3.31,3.9-5.46,3.9-2.37,0-3.32-1.5-3-3.61C89.5,249.12,87.57,251,85.53,250.83Z" transform="translate(-3.06 -51.49)"/><path class="cls-5" d="M98.42,245.59a44.68,44.68,0,0,1,4.67-8.85c.32-.44.58-.55.87-.22.55.58.84,2.15,0,4-.76,1.6-2.29,4.08-3.06,5.9-.87,2.11-.8,3.53.37,3.46,1.64-.07,3.64-2.47,4.73-5,.19-.33.44-.29.59,0a2.6,2.6,0,0,1-.26,2.26,6.53,6.53,0,0,1-5.43,3.79C98.1,250.91,97.4,248.58,98.42,245.59Zm8.13-9.51a1.32,1.32,0,0,1-2-.54,2.26,2.26,0,0,1,.18-2.7c.58-.62,1.64-.18,2.11.8A2.21,2.21,0,0,1,106.55,236.08Z" transform="translate(-3.06 -51.49)"/><path class="cls-5" d="M107.86,235.25c-.37-.51-.15-.77.4-.73a21.52,21.52,0,0,0,3-.15,46.7,46.7,0,0,1,2.77-4.51c.33-.48.69-.44.87,0,.4,1,.4,2.22-.47,4.11a2.28,2.28,0,0,1,2.26,1.09c.25.44.11.7-.44.7a11.07,11.07,0,0,0-2.84.14c-1.42,2.44-3.5,6-4.88,9-1.2,2.66-.8,4.92.73,5s3.71-2.51,5.06-5.24c.22-.44.62-.51.76,0a3,3,0,0,1-.36,2.08c-.47,1.05-2.88,4.26-5.79,4.15-2.41-.08-4.34-2.77-2.59-7,.77-1.82,2.3-4.88,3.86-7.76A3,3,0,0,1,107.86,235.25Z" transform="translate(-3.06 -51.49)"/><path class="cls-5" d="M119.07,238.12a3.94,3.94,0,0,1,1.32-2.8c.8-.73,1.63-.88,2-.55s.18.77-.29,1.61c-.14.21-.25.43-.4.69-.26,3.35.44,6.19.33,8.7-.07,1.42-.33,2.95-1.64,3.83a9.32,9.32,0,0,0,4.88-5.07c.18-.4.55-.29.69,0a3.29,3.29,0,0,1-.51,2.41,7.67,7.67,0,0,1-6.45,4c-2.11.08-4.15-.47-5.39-2.73-.87-1.64-.76-4,.48-5.06.43-.36.73-.22.76.36,0,.3,0,.59.08.88A71,71,0,0,0,119.07,238.12Zm-3.86,8.23c.55,2.12,1.61,3.61,2.81,3.25,1.67-.51,1.13-6.23,1-9.15A62.72,62.72,0,0,1,115.21,246.35Z" transform="translate(-3.06 -51.49)"/><path class="cls-5" d="M141.25,246.32c-1.47.15-2.38-.3-2.8-1.21-.12-.27-.09-.48.3-.48,1.9,0,4.31-.88,6.19-1a2.56,2.56,0,0,1,2.71,1.45c.09.33,0,.51-.3.48a10.12,10.12,0,0,0-3,.19,4,4,0,0,1-1,3.25c-1.72,2.24-5.59,4-8.45,1.45-3.26-2.83-.63-8.2,4.13-9.56a2.47,2.47,0,0,1-1.78-2.35c-.15-3,3.23-5.58,5.25-6.22,1.54-.48,2.9-.72,4.25.45s1.39,2.06.67,3.56c-.42.91-1,2.18-1.24,2.93-.09.24-.27.33-.63.15-.7-.36-1.21-1.36-.67-2.9s1.51-2.56,1-3.07c-.91-.88-6.67,2.47-6.46,5.49.09,1.2,1,1.39,2.21,1.36a2.09,2.09,0,0,1,2.23,1.26c.12.3,0,.4-.33.42-4.47.37-8.18,3.11-8.27,6a2.06,2.06,0,0,0,2,2.26c1.48.09,4.1-1.21,5.46-4.16C142.13,246.17,141.68,246.29,141.25,246.32Z" transform="translate(-3.06 -51.49)"/><path class="cls-5" d="M154.92,249.82c1.75.14,4.3-2.48,5.72-5.29.26-.47.66-.51.8,0a3.36,3.36,0,0,1-.36,2.26c-.51,1.09-3.17,4.12-6.08,4-2.52-.07-3.87-1.82-3-5.75,1.35-6.34,5.5-12.93,9.22-16.79.54-.58,1.05-.66,1.56-.18,1.06.94,1.28,2.29.84,4-1.13,4.48-5.21,8.85-8.45,11C153.68,246.65,153.28,249.67,154.92,249.82Zm7.43-18.47c-.47-.29-3.17,3.75-5.68,8.41a17.78,17.78,0,0,0-.87,1.75C160.79,237.47,162.83,231.64,162.35,231.35Z" transform="translate(-3.06 -51.49)"/><path class="cls-5" d="M164.94,249.89c3,.14,5.68-2.77,7.25-5.17.18-.3.47-.3.62,0a3,3,0,0,1-.62,2.26,9.22,9.22,0,0,1-7.14,3.93c-4.63.08-6.23-4.48-3.86-9.17s6.08-6.6,7.9-5.54a6.81,6.81,0,0,1,2.15,1.89c.66.88.36,3.1-1.16,5-1.79,2.18-4.23,3.13-6.78,1C162.13,247.48,163,249.78,164.94,249.89Zm3-8.38c1.17-1.53,2-3.42,1.46-3.82-.77-.62-3.79,1.56-5.5,5-.11.22-.22.44-.29.62C165.41,244.46,166.91,242.89,168,241.51Zm4.48-8.92c-1.31.62-3.24,1.67-4.19,2a2.77,2.77,0,0,1-1.89,0c-.29-.15-.33-.33,0-.58a27.15,27.15,0,0,1,3.46-2.12,3,3,0,0,1,2.58.11C172.73,232.19,172.81,232.41,172.44,232.59Z" transform="translate(-3.06 -51.49)"/><path class="cls-5" d="M179.65,251.85c-2,4.89-4.59,10.68-7.54,11.84a1.63,1.63,0,0,1-2.11-.76,4.6,4.6,0,0,1-.73-4.52c1.06-3.28,4.19-5.5,7.8-6.88.36-.8.69-1.68,1.05-2.52a5.38,5.38,0,0,1-3.68,1.82c-3.35,0-4-4.55-1.05-8.92,2.84-4.22,5.79-5.86,7.65-5.86a2.14,2.14,0,0,1,2.15,2.4c.43-.73.83-1.38,1.2-2s.65-.55.91-.22a3.86,3.86,0,0,1-.07,4c-1.1,2.18-3.39,6.59-4.92,10.12a18.19,18.19,0,0,0,6.52-5.46c.22-.29.55-.29.62.07a3.58,3.58,0,0,1-.73,2.11C185.3,249.3,182.68,250.76,179.65,251.85Zm-8.92,9.8c.47.69,3.35-3.09,5.72-8.63C171.71,255.79,170.11,260.78,170.73,261.65Zm10.85-23.75c-1.13-.07-3.79,2.26-5.79,5.43s-2.37,6.34-.91,6.38,3.28-2.26,5.14-5.47C182.31,240.24,182.64,238,181.58,237.9Z" transform="translate(-3.06 -51.49)"/><path class="cls-5" d="M187.74,250.83c-2.59-.18-2.66-2.87-1.86-5.28a38.94,38.94,0,0,1,5-9.28.54.54,0,0,1,.94,0c.81,1.2.62,2.84-.69,4.92a36,36,0,0,0-2.84,5.35c-.76,1.79-.65,3.1.18,3.17,1.42.11,3.43-2.44,5.39-5.61,2.3-3.72,3.35-6.23,4.52-7.79.36-.51.62-.59.91-.22.55.65.84,2.26,0,4.08-.8,1.64-2.62,4.37-3.46,6.22-.94,2.08-.8,3.61.51,3.54,1.53-.07,3.39-2.48,4.81-5,.18-.33.51-.36.66,0a3.19,3.19,0,0,1-.33,2.29c-1.06,2-3.32,3.9-5.46,3.9-2.37,0-3.32-1.5-3-3.61C191.71,249.12,189.78,251,187.74,250.83Z" transform="translate(-3.06 -51.49)"/><path class="cls-5" d="M211.59,236.05c1.24,0,1.9,2,1.42,3.57,1.75-1.72,4.19-3.43,5.39-3.39s1.61,2.19.88,4c-.66,1.64-2.44,4-3.35,5.86-1,2.08-.51,3.75.8,3.72,1.49,0,3.13-2.44,4.55-5,.18-.33.48-.33.66-.08a3.6,3.6,0,0,1-.33,2.3c-1,2.07-3.35,3.89-5.46,3.89-3.17,0-4.34-2.51-3-5.5s4.59-7.1,4-7.28c-.29-.11-1.53.29-3.89,2.66a31.56,31.56,0,0,0-6.34,9.94c-.22.44-.51.55-.84.18-.62-.54-1.13-2-.07-4.59,1.2-3,5.13-8,4.4-8.3-.43-.18-2.22.8-4.55,3.35a32.54,32.54,0,0,0-5.35,9.14c-.15.33-.37.48-.69.19-.81-.7-1-1.9-.37-3.76a60.17,60.17,0,0,1,5.72-10.85c.25-.4.55-.36.76,0a4.57,4.57,0,0,1,0,3.9C207.55,238.16,210.28,236,211.59,236.05Z" transform="translate(-3.06 -51.49)"/><path class="cls-5" d="M225.76,249.89c3,.14,5.68-2.77,7.25-5.17.18-.3.47-.3.62,0A3,3,0,0,1,233,247a9.22,9.22,0,0,1-7.14,3.93c-4.62.08-6.23-4.48-3.86-9.17s6.08-6.6,7.9-5.54a6.81,6.81,0,0,1,2.15,1.89c.66.88.37,3.1-1.16,5-1.79,2.18-4.23,3.13-6.78,1C223,247.48,223.83,249.78,225.76,249.89Zm3-8.38c1.17-1.53,2-3.42,1.46-3.82-.76-.62-3.79,1.56-5.5,5-.11.22-.22.44-.29.62C226.24,244.46,227.73,242.89,228.78,241.51Z" transform="translate(-3.06 -51.49)"/><path class="cls-5" d="M237.85,238.12a4,4,0,0,1,1.31-2.8c.81-.73,1.64-.88,2-.55s.18.77-.29,1.61a6.28,6.28,0,0,0-.4.69c-.26,3.35.44,6.19.33,8.7-.08,1.42-.33,2.95-1.64,3.83a9.32,9.32,0,0,0,4.88-5.07c.18-.4.54-.29.69,0a3.29,3.29,0,0,1-.51,2.41,7.67,7.67,0,0,1-6.45,4c-2.11.08-4.15-.47-5.39-2.73-.87-1.64-.76-4,.48-5.06.43-.36.73-.22.76.36,0,.3,0,.59.08.88A71,71,0,0,0,237.85,238.12ZM234,246.35c.55,2.12,1.6,3.61,2.81,3.25,1.67-.51,1.13-6.23,1-9.15A62.72,62.72,0,0,1,234,246.35Z" transform="translate(-3.06 -51.49)"/><path class="cls-5" d="M107,266.82c-.09-.26-.07-.4.24-.45,1.63-.21,2.81-1.15,4.34-1.39s2.69.54,3.56,2.08c2.17,3.77-2,10.66-8.35,12.76a1.41,1.41,0,0,1-1.51-.17,5,5,0,0,1-1-1c-.45-.62-.57-1-.07-2.5a41.83,41.83,0,0,1,4.32-8.33A1.73,1.73,0,0,1,107,266.82Zm2.17,3.23a48.34,48.34,0,0,0-3.77,7.41c-.31,1-.14,1.32.57,1.06,6.44-2.45,9.41-9.2,8-11.42-.83-1.32-2.55-.07-4.2.47A3.75,3.75,0,0,1,109.18,270.05Z" transform="translate(-3.06 -51.49)"/><path class="cls-5" d="M118.22,279.32c2,.1,3.68-1.79,4.69-3.35.12-.19.31-.19.4,0a1.91,1.91,0,0,1-.4,1.46,6,6,0,0,1-4.62,2.55c-3,0-4-2.91-2.5-5.95s3.94-4.27,5.11-3.58a4.37,4.37,0,0,1,1.4,1.22c.42.57.23,2-.76,3.21-1.15,1.42-2.73,2-4.39.68C116.4,277.77,117,279.25,118.22,279.32Zm2-5.42c.76-1,1.28-2.22,1-2.48-.5-.4-2.46,1-3.56,3.25a2.86,2.86,0,0,0-.19.41C118.52,275.81,119.49,274.79,120.17,273.9Z" transform="translate(-3.06 -51.49)"/><path class="cls-5" d="M131.94,276.09c.14-.33.4-.24.45,0a2.29,2.29,0,0,1-.31,1.56,5,5,0,0,1-4.19,2.52,4.12,4.12,0,0,1-3.33-.87,2.42,2.42,0,0,1-.8-1.58c-1.11,2-2.31,4.43-3.45,7-.09.21-.26.26-.4.05-.35-.5-.47-1.16,0-2.6a70.74,70.74,0,0,1,6.16-11.74c.23-.31.44-.26.56,0a2.4,2.4,0,0,1,.14,1.06c1-.89,2.43-1.56,3.45-.49s.61,3.3-.26,5.23a7.19,7.19,0,0,1-2.48,3.23A5.43,5.43,0,0,0,131.94,276.09ZM125,278.8c.76.62,2.29-1.11,3.4-3.37.92-1.89,1.18-3.85.59-4.13s-2,.9-3.14,2.71c-.26.43-.52.85-.8,1.35C124.49,276.85,124.37,278.26,125,278.8Z" transform="translate(-3.06 -51.49)"/><path class="cls-5" d="M132.84,279.94c-1.68-.12-1.72-1.87-1.21-3.43a25.7,25.7,0,0,1,3.26-6,.35.35,0,0,1,.61,0c.52.77.4,1.84-.44,3.18a24.09,24.09,0,0,0-1.85,3.47c-.49,1.15-.42,2,.12,2.05.92.07,2.22-1.58,3.49-3.63,1.49-2.41,2.17-4,2.93-5.05.24-.33.4-.38.59-.14a2.63,2.63,0,0,1,0,2.64c-.52,1.06-1.7,2.83-2.25,4-.61,1.35-.51,2.34.33,2.29,1,0,2.2-1.6,3.12-3.25.12-.22.33-.24.42,0a2,2,0,0,1-.21,1.49,4.51,4.51,0,0,1-3.54,2.52c-1.53,0-2.14-1-2-2.33C135.41,278.83,134.16,280,132.84,279.94Z" transform="translate(-3.06 -51.49)"/><path class="cls-5" d="M141.19,276.54a28.61,28.61,0,0,1,3-5.73c.21-.29.37-.36.56-.14a2.46,2.46,0,0,1,0,2.57c-.5,1-1.49,2.64-2,3.82-.57,1.37-.52,2.29.23,2.24,1.06-.05,2.36-1.61,3.07-3.23.12-.22.28-.19.38,0a1.69,1.69,0,0,1-.17,1.46,4.23,4.23,0,0,1-3.51,2.45C141,280,140.53,278.47,141.19,276.54Zm5.26-6.16a.85.85,0,0,1-1.32-.35,1.48,1.48,0,0,1,.11-1.75c.38-.4,1.07-.12,1.37.52A1.43,1.43,0,0,1,146.45,270.38Z" transform="translate(-3.06 -51.49)"/><path class="cls-5" d="M149.32,271.7a2.55,2.55,0,0,1,.85-1.81c.52-.48,1.06-.57,1.28-.36s.11.5-.19,1a3.81,3.81,0,0,0-.26.45c-.17,2.17.28,4,.21,5.64a2.91,2.91,0,0,1-1.06,2.47,6,6,0,0,0,3.16-3.28c.12-.26.35-.18.45,0a2.17,2.17,0,0,1-.33,1.56,5,5,0,0,1-4.18,2.6,3.5,3.5,0,0,1-3.49-1.77,2.84,2.84,0,0,1,.31-3.28c.28-.24.47-.14.49.23,0,.19,0,.38.05.57A44.06,44.06,0,0,0,149.32,271.7Zm-2.5,5.33c.36,1.37,1,2.34,1.82,2.1,1.08-.33.73-4,.64-5.92A41.53,41.53,0,0,1,146.82,277Z" transform="translate(-3.06 -51.49)"/><path class="cls-5" d="M161.85,267.83c.7-.68,1.55-1.51,2.26-2.26a.38.38,0,0,1,.61,0c.69.61.74,1.51-.16,3.21-1.37,2.62-4,7-5.85,11.44-.1.23-.26.28-.43.09-.37-.42-.56-1.15-.11-2.62a84.59,84.59,0,0,1,4.53-9.36C161.49,268.4,161.63,268.05,161.85,267.83Z" transform="translate(-3.06 -51.49)"/><path class="cls-5" d="M167.15,274.58c-1.41-.68-2.38-2.71-.68-5.85,1.56-2.88,3.77-4,5.8-3,2.2,1.11,2,4.57-.26,9.24-1.77,3.57-3.65,5.31-6,5.36-1.3,0-3-.57-3.09-2.57a2.18,2.18,0,0,1,.94-2c.26-.17.52-.22.45.14-.47,2.1,0,3.14.8,3.42,1.37.47,3.4-1.11,5.29-4.93A3.38,3.38,0,0,1,167.15,274.58Zm4.63-8.14c-.88-.47-2.74,1-3.82,3.09s-1.14,4-.19,4.41,2.92-.61,3.89-3S172.41,266.8,171.78,266.44Z" transform="translate(-3.06 -51.49)"/><path class="cls-5" d="M176.63,274.58c-1.41-.68-2.38-2.71-.68-5.85,1.56-2.88,3.77-4,5.8-3,2.2,1.11,2.05,4.57-.26,9.24-1.77,3.57-3.65,5.31-6,5.36-1.3,0-3-.57-3.09-2.57a2.18,2.18,0,0,1,.94-2c.26-.17.52-.22.45.14-.47,2.1,0,3.14.8,3.42,1.37.47,3.4-1.11,5.29-4.93A3.38,3.38,0,0,1,176.63,274.58Zm4.63-8.14c-.88-.47-2.74,1-3.82,3.09s-1.14,4-.19,4.41,2.92-.61,3.89-3S181.89,266.8,181.26,266.44Z" transform="translate(-3.06 -51.49)"/><path class="cls-5" d="M192,274.7c.05.21,0,.33-.26.28a5.51,5.51,0,0,0-1.27-.07,51.45,51.45,0,0,0-2.5,5.14c-.1.24-.29.26-.4.1a2.5,2.5,0,0,1-.15-2.57c.24-.64.62-1.51,1.09-2.5a33.66,33.66,0,0,0-3.44.61c-.36.07-.59.07-.81-.19a12.13,12.13,0,0,1-.82-1.34.65.65,0,0,1,.09-.76,52.83,52.83,0,0,1,9.53-7.9c.29-.19.69-.31.92.07s.4.66.66,1.11.29.63-.19,1.37c-.82,1.27-2.07,3.39-3.32,5.63A1.72,1.72,0,0,1,192,274.7Zm-7.41-.54a24.38,24.38,0,0,1,4.75-.76,56.36,56.36,0,0,1,3.42-5.85A54.91,54.91,0,0,0,184.6,274.16Z" transform="translate(-3.06 -51.49)"/></svg>